<svg xmlns="http://www.w3.org/2000/svg" version="1.1" xmlns:xlink="http://www.w3.org/1999/xlink" xmlns:svgjs="http://svgjs.dev/svgjs" width="1440" height="560" preserveAspectRatio="none" viewBox="0 0 1440 560"><g mask="url(&quot;#SvgjsMask1072&quot;)" fill="none"><path d="M39.73 194.12L111.61 235.62L111.61 318.62L39.73 360.12L-32.15 318.62L-32.15 235.62zM39.73 443.12L111.61 484.62L111.61 567.62L39.73 609.12L-32.15 567.62L-32.15 484.62zM255.38 69.62L327.26 111.12L327.26 194.12L255.38 235.62L183.49 194.12L183.49 111.12zM327.26 194.12L399.14 235.62L399.14 318.62L327.26 360.12L255.38 318.62L255.38 235.62zM327.26 443.12L399.14 484.62L399.14 567.62L327.26 609.12L255.38 567.62L255.38 484.62zM471.02 -54.88L542.91 -13.38L542.91 69.62L471.02 111.12L399.14 69.62L399.14 -13.38zM830.43 318.62L902.32 360.12L902.32 443.12L830.43 484.62L758.55 443.12L758.55 360.12zM902.32 194.12L974.2 235.62L974.2 318.62L902.32 360.12L830.43 318.62L830.43 235.62zM902.32 443.12L974.2 484.62L974.2 567.62L902.32 609.12L830.43 567.62L830.43 484.62zM1046.08 -54.88L1117.96 -13.38L1117.96 69.62L1046.08 111.12L974.2 69.62L974.2 -13.38zM1189.84 -54.88L1261.73 -13.38L1261.73 69.62L1189.84 111.12L1117.96 69.62L1117.96 -13.38zM1333.61 194.12L1405.49 235.62L1405.49 318.62L1333.61 360.12L1261.73 318.62L1261.73 235.62zM1549.26 69.62L1621.14 111.12L1621.14 194.12L1549.26 235.62L1477.37 194.12L1477.37 111.12zM1477.37 194.12L1549.26 235.62L1549.26 318.62L1477.37 360.12L1405.49 318.62L1405.49 235.62zM1549.26 318.62L1621.14 360.12L1621.14 443.12L1549.26 484.62L1477.37 443.12L1477.37 360.12z" stroke="#03305d" stroke-width="2"></path><path d="M31.43 194.12 a8.3 8.3 0 1 0 16.6 0 a8.3 8.3 0 1 0 -16.6 0zM103.31 235.62 a8.3 8.3 0 1 0 16.6 0 a8.3 8.3 0 1 0 -16.6 0zM103.31 318.62 a8.3 8.3 0 1 0 16.6 0 a8.3 8.3 0 1 0 -16.6 0zM31.43 360.12 a8.3 8.3 0 1 0 16.6 0 a8.3 8.3 0 1 0 -16.6 0zM-40.45 318.62 a8.3 8.3 0 1 0 16.6 0 a8.3 8.3 0 1 0 -16.6 0zM-40.45 235.62 a8.3 8.3 0 1 0 16.6 0 a8.3 8.3 0 1 0 -16.6 0zM31.43 443.12 a8.3 8.3 0 1 0 16.6 0 a8.3 8.3 0 1 0 -16.6 0zM103.31 484.62 a8.3 8.3 0 1 0 16.6 0 a8.3 8.3 0 1 0 -16.6 0zM103.31 567.62 a8.3 8.3 0 1 0 16.6 0 a8.3 8.3 0 1 0 -16.6 0zM31.43 609.12 a8.3 8.3 0 1 0 16.6 0 a8.3 8.3 0 1 0 -16.6 0zM-40.45 567.62 a8.3 8.3 0 1 0 16.6 0 a8.3 8.3 0 1 0 -16.6 0zM-40.45 484.62 a8.3 8.3 0 1 0 16.6 0 a8.3 8.3 0 1 0 -16.6 0zM247.08 69.62 a8.3 8.3 0 1 0 16.6 0 a8.3 8.3 0 1 0 -16.6 0zM318.96 111.12 a8.3 8.3 0 1 0 16.6 0 a8.3 8.3 0 1 0 -16.6 0zM318.96 194.12 a8.3 8.3 0 1 0 16.6 0 a8.3 8.3 0 1 0 -16.6 0zM247.08 235.62 a8.3 8.3 0 1 0 16.6 0 a8.3 8.3 0 1 0 -16.6 0zM175.19 194.12 a8.3 8.3 0 1 0 16.6 0 a8.3 8.3 0 1 0 -16.6 0zM175.19 111.12 a8.3 8.3 0 1 0 16.6 0 a8.3 8.3 0 1 0 -16.6 0zM390.84 235.62 a8.3 8.3 0 1 0 16.6 0 a8.3 8.3 0 1 0 -16.6 0zM390.84 318.62 a8.3 8.3 0 1 0 16.6 0 a8.3 8.3 0 1 0 -16.6 0zM318.96 360.12 a8.3 8.3 0 1 0 16.6 0 a8.3 8.3 0 1 0 -16.6 0zM247.08 318.62 a8.3 8.3 0 1 0 16.6 0 a8.3 8.3 0 1 0 -16.6 0zM318.96 443.12 a8.3 8.3 0 1 0 16.6 0 a8.3 8.3 0 1 0 -16.6 0zM390.84 484.62 a8.3 8.3 0 1 0 16.6 0 a8.3 8.3 0 1 0 -16.6 0zM390.84 567.62 a8.3 8.3 0 1 0 16.6 0 a8.3 8.3 0 1 0 -16.6 0zM318.96 609.12 a8.3 8.3 0 1 0 16.6 0 a8.3 8.3 0 1 0 -16.6 0zM247.08 567.62 a8.3 8.3 0 1 0 16.6 0 a8.3 8.3 0 1 0 -16.6 0zM247.08 484.62 a8.3 8.3 0 1 0 16.6 0 a8.3 8.3 0 1 0 -16.6 0zM462.72 -54.88 a8.3 8.3 0 1 0 16.6 0 a8.3 8.3 0 1 0 -16.6 0zM534.61 -13.38 a8.3 8.3 0 1 0 16.6 0 a8.3 8.3 0 1 0 -16.6 0zM534.61 69.62 a8.3 8.3 0 1 0 16.6 0 a8.3 8.3 0 1 0 -16.6 0zM462.72 111.12 a8.3 8.3 0 1 0 16.6 0 a8.3 8.3 0 1 0 -16.6 0zM390.84 69.62 a8.3 8.3 0 1 0 16.6 0 a8.3 8.3 0 1 0 -16.6 0zM390.84 -13.38 a8.3 8.3 0 1 0 16.6 0 a8.3 8.3 0 1 0 -16.6 0zM822.13 318.62 a8.3 8.3 0 1 0 16.6 0 a8.3 8.3 0 1 0 -16.6 0zM894.02 360.12 a8.3 8.3 0 1 0 16.6 0 a8.3 8.3 0 1 0 -16.6 0zM894.02 443.12 a8.3 8.3 0 1 0 16.6 0 a8.3 8.3 0 1 0 -16.6 0zM822.13 484.62 a8.3 8.3 0 1 0 16.6 0 a8.3 8.3 0 1 0 -16.6 0zM750.25 443.12 a8.3 8.3 0 1 0 16.6 0 a8.3 8.3 0 1 0 -16.6 0zM750.25 360.12 a8.3 8.3 0 1 0 16.6 0 a8.3 8.3 0 1 0 -16.6 0zM894.02 194.12 a8.3 8.3 0 1 0 16.6 0 a8.3 8.3 0 1 0 -16.6 0zM965.9 235.62 a8.3 8.3 0 1 0 16.6 0 a8.3 8.3 0 1 0 -16.6 0zM965.9 318.62 a8.3 8.3 0 1 0 16.6 0 a8.3 8.3 0 1 0 -16.6 0zM822.13 235.62 a8.3 8.3 0 1 0 16.6 0 a8.3 8.3 0 1 0 -16.6 0zM965.9 484.62 a8.3 8.3 0 1 0 16.6 0 a8.3 8.3 0 1 0 -16.6 0zM965.9 567.62 a8.3 8.3 0 1 0 16.6 0 a8.3 8.3 0 1 0 -16.6 0zM894.02 609.12 a8.3 8.3 0 1 0 16.6 0 a8.3 8.3 0 1 0 -16.6 0zM822.13 567.62 a8.3 8.3 0 1 0 16.6 0 a8.3 8.3 0 1 0 -16.6 0zM1037.78 -54.88 a8.3 8.3 0 1 0 16.6 0 a8.3 8.3 0 1 0 -16.6 0zM1109.66 -13.38 a8.3 8.3 0 1 0 16.6 0 a8.3 8.3 0 1 0 -16.6 0zM1109.66 69.62 a8.3 8.3 0 1 0 16.6 0 a8.3 8.3 0 1 0 -16.6 0zM1037.78 111.12 a8.3 8.3 0 1 0 16.6 0 a8.3 8.3 0 1 0 -16.6 0zM965.9 69.62 a8.3 8.3 0 1 0 16.6 0 a8.3 8.3 0 1 0 -16.6 0zM965.9 -13.38 a8.3 8.3 0 1 0 16.6 0 a8.3 8.3 0 1 0 -16.6 0zM1181.54 -54.88 a8.3 8.3 0 1 0 16.6 0 a8.3 8.3 0 1 0 -16.6 0zM1253.43 -13.38 a8.3 8.3 0 1 0 16.6 0 a8.3 8.3 0 1 0 -16.6 0zM1253.43 69.62 a8.3 8.3 0 1 0 16.6 0 a8.3 8.3 0 1 0 -16.6 0zM1181.54 111.12 a8.3 8.3 0 1 0 16.6 0 a8.3 8.3 0 1 0 -16.6 0zM1325.31 194.12 a8.3 8.3 0 1 0 16.6 0 a8.3 8.3 0 1 0 -16.6 0zM1397.19 235.62 a8.3 8.3 0 1 0 16.6 0 a8.3 8.3 0 1 0 -16.6 0zM1397.19 318.62 a8.3 8.3 0 1 0 16.6 0 a8.3 8.3 0 1 0 -16.6 0zM1325.31 360.12 a8.3 8.3 0 1 0 16.6 0 a8.3 8.3 0 1 0 -16.6 0zM1253.43 318.62 a8.3 8.3 0 1 0 16.6 0 a8.3 8.3 0 1 0 -16.6 0zM1253.43 235.62 a8.3 8.3 0 1 0 16.6 0 a8.3 8.3 0 1 0 -16.6 0zM1540.96 69.62 a8.3 8.3 0 1 0 16.6 0 a8.3 8.3 0 1 0 -16.6 0zM1612.84 111.12 a8.3 8.3 0 1 0 16.6 0 a8.3 8.3 0 1 0 -16.6 0zM1612.84 194.12 a8.3 8.3 0 1 0 16.6 0 a8.3 8.3 0 1 0 -16.6 0zM1540.96 235.62 a8.3 8.3 0 1 0 16.6 0 a8.3 8.3 0 1 0 -16.6 0zM1469.07 194.12 a8.3 8.3 0 1 0 16.6 0 a8.3 8.3 0 1 0 -16.6 0zM1469.07 111.12 a8.3 8.3 0 1 0 16.6 0 a8.3 8.3 0 1 0 -16.6 0zM1540.96 318.62 a8.3 8.3 0 1 0 16.6 0 a8.3 8.3 0 1 0 -16.6 0zM1469.07 360.12 a8.3 8.3 0 1 0 16.6 0 a8.3 8.3 0 1 0 -16.6 0zM1612.84 360.12 a8.3 8.3 0 1 0 16.6 0 a8.3 8.3 0 1 0 -16.6 0zM1612.84 443.12 a8.3 8.3 0 1 0 16.6 0 a8.3 8.3 0 1 0 -16.6 0zM1540.96 484.62 a8.3 8.3 0 1 0 16.6 0 a8.3 8.3 0 1 0 -16.6 0zM1469.07 443.12 a8.3 8.3 0 1 0 16.6 0 a8.3 8.3 0 1 0 -16.6 0z" fill="#03305d"></path><path d="M34.42 -41.89L77.72 -16.89L77.72 33.11L34.42 58.11L-8.88 33.11L-8.88 -16.89zM34.42 108.11L77.72 133.11L77.72 183.11L34.42 208.11L-8.88 183.11L-8.88 133.11zM77.72 183.11L121.03 208.11L121.03 258.11L77.72 283.11L34.42 258.11L34.42 208.11zM77.72 333.11L121.03 358.11L121.03 408.11L77.72 433.11L34.42 408.11L34.42 358.11zM34.42 408.11L77.72 433.11L77.72 483.11L34.42 508.11L-8.88 483.11L-8.88 433.11zM121.03 258.11L164.33 283.11L164.33 333.11L121.03 358.11L77.72 333.11L77.72 283.11zM164.33 333.11L207.63 358.11L207.63 408.11L164.33 433.11L121.03 408.11L121.03 358.11zM250.93 183.11L294.24 208.11L294.24 258.11L250.93 283.11L207.63 258.11L207.63 208.11zM207.63 258.11L250.93 283.11L250.93 333.11L207.63 358.11L164.33 333.11L164.33 283.11zM207.63 408.11L250.93 433.11L250.93 483.11L207.63 508.11L164.33 483.11L164.33 433.11zM337.54 483.11L380.84 508.11L380.84 558.11L337.54 583.11L294.24 558.11L294.24 508.11zM380.84 108.11L424.14 133.11L424.14 183.11L380.84 208.11L337.54 183.11L337.54 133.11zM467.45 -41.89L510.75 -16.89L510.75 33.11L467.45 58.11L424.14 33.11L424.14 -16.89zM554.05 -41.89L597.35 -16.89L597.35 33.11L554.05 58.11L510.75 33.11L510.75 -16.89zM554.05 258.11L597.35 283.11L597.35 333.11L554.05 358.11L510.75 333.11L510.75 283.11zM640.65 -41.89L683.96 -16.89L683.96 33.11L640.65 58.11L597.35 33.11L597.35 -16.89zM770.56 183.11L813.87 208.11L813.87 258.11L770.56 283.11L727.26 258.11L727.26 208.11zM727.26 258.11L770.56 283.11L770.56 333.11L727.26 358.11L683.96 333.11L683.96 283.11zM813.87 108.11L857.17 133.11L857.17 183.11L813.87 208.11L770.56 183.11L770.56 133.11zM857.17 483.11L900.47 508.11L900.47 558.11L857.17 583.11L813.87 558.11L813.87 508.11zM900.47 -41.89L943.77 -16.89L943.77 33.11L900.47 58.11L857.17 33.11L857.17 -16.89zM900.47 258.11L943.77 283.11L943.77 333.11L900.47 358.11L857.17 333.11L857.17 283.11zM987.08 -41.89L1030.38 -16.89L1030.38 33.11L987.08 58.11L943.77 33.11L943.77 -16.89zM1030.38 33.11L1073.68 58.11L1073.68 108.11L1030.38 133.11L987.08 108.11L987.08 58.11zM1203.59 333.11L1246.89 358.11L1246.89 408.11L1203.59 433.11L1160.29 408.11L1160.29 358.11zM1160.29 408.11L1203.59 433.11L1203.59 483.11L1160.29 508.11L1116.98 483.11L1116.98 433.11zM1246.89 -41.89L1290.19 -16.89L1290.19 33.11L1246.89 58.11L1203.59 33.11L1203.59 -16.89zM1290.19 33.11L1333.5 58.11L1333.5 108.11L1290.19 133.11L1246.89 108.11L1246.89 58.11zM1290.19 183.11L1333.5 208.11L1333.5 258.11L1290.19 283.11L1246.89 258.11L1246.89 208.11zM1333.5 108.11L1376.8 133.11L1376.8 183.11L1333.5 208.11L1290.19 183.11L1290.19 133.11zM1333.5 258.11L1376.8 283.11L1376.8 333.11L1333.5 358.11L1290.19 333.11L1290.19 283.11zM1376.8 333.11L1420.1 358.11L1420.1 408.11L1376.8 433.11L1333.5 408.11L1333.5 358.11zM1376.8 483.11L1420.1 508.11L1420.1 558.11L1376.8 583.11L1333.5 558.11L1333.5 508.11zM1420.1 -41.89L1463.4 -16.89L1463.4 33.11L1420.1 58.11L1376.8 33.11L1376.8 -16.89zM1420.1 108.11L1463.4 133.11L1463.4 183.11L1420.1 208.11L1376.8 183.11L1376.8 133.11zM1463.4 333.11L1506.71 358.11L1506.71 408.11L1463.4 433.11L1420.1 408.11L1420.1 358.11z" stroke="rgba(0, 0, 0, 0)" stroke-width="2"></path></g><defs><mask id="SvgjsMask1072"><rect width="1440" height="560" fill="#ffffff"></rect></mask></defs></svg>